# xmcd
#
# Track frame offsets:
#	150
#	12320
#	25890
#	37780
#	51932
#	62632
#	74125
#	87700
#	96880
#	108827
#	124060
#	139347
#	152522
#	168837
#	185300
#	199052
#	213047
#	227825
#	238042
#	254845
#	273872
#	286882
#
# Disc length: 4071 seconds
#
# Revision: 1
# Processed by: cddbd v1.5.1PL0 Copyright (c) Steve Scherf et al.
# Submitted via: MusicWizard 7.0.2
#
DISCID=3a0fe516
DTITLE=Various Artist - I Love Country - New Country
DYEAR=1988
DGENRE=Country
TTITLE0=Bobby Lee Springfield - Hank Drank
TTITLE1=Bobby Lee Springfield - Til You Got A Hold Of Me
TTITLE2=Asleep At The Wheel - Way Down Texas Way
TTITLE3=Asleep At The Wheel - House Of The Blue Lights
TTITLE4=Steve Earle and The Dukes - Continental Tralways Blues
TTITLE5=Steve Earle - Squeeze Me In
TTITLE6=Calamity Jane - Love Wheel
TTITLE7=Calamity Jane - Walkin' After Midnight
TTITLE8=Larry Gatlin and The Gatlin Brothers Band - All The Gold In California
TTITLE9=Larry Gatlin and The Gatlin Brothers Ban - She Used To Sing On Sunday
TTITLE10=Larry Gatlin and The Gatlin Brothers Band - Sure Feels Like Love
TTITLE11=Exile - Take Me To The River
TTITLE12=Exile - She's A Miracle
TTITLE13=Exile - I Don't Want To Be A Memory
TTITLE14=Sweethearts Of The Rodeo - Gotta Get Away
TTITLE15=Sweethearts Of The Rodeo - Midnight Girl/Sunset Town
TTITLE16=Keith Stegall - California
TTITLE17=Ricky Van Shelton - I Don't Care
TTITLE18=Ricky Skaggs - Cajun Moon
TTITLE19=Ricky Skaggs - Country Boy
TTITLE20=The O'Kanes - Oh Darlin Why Don't You Care For Me No More
TTITLE21=The O'Kanes - When I Found You
EXTD=(c)1988 CBS France\nupc 5099746113223\n
EXTT0=
EXTT1=
EXTT2=
EXTT3=
EXTT4=
EXTT5=
EXTT6=
EXTT7=
EXTT8=
EXTT9=
EXTT10=
EXTT11=
EXTT12=
EXTT13=
EXTT14=
EXTT15=
EXTT16=
EXTT17=
EXTT18=
EXTT19=
EXTT20=
EXTT21=
PLAYORDER=
